<?xml version="1.0" standalone="no"?><!DOCTYPE svg PUBLIC "-//W3C//DTD SVG 1.1//EN" "http://www.w3.org/Graphics/SVG/1.1/DTD/svg11.dtd"><svg t="1741876258459" class="icon" viewBox="0 0 1024 1024" version="1.1" xmlns="http://www.w3.org/2000/svg" p-id="15821" xmlns:xlink="http://www.w3.org/1999/xlink" width="32" height="32"><path d="M767.0784 946.816H102.0416C42.9056 946.816 0 907.5712 0 853.6832v-19.3536c0-47.616 33.4848-93.1328 81.6384-110.4128l165.3504-73.2416 1.0496-0.512c20.4032-6.272 41.856-15.6928 47.104-20.9408 2.0992-5.2224 3.6608-23.552-2.6112-36.096a212.9408 212.9408 0 0 0-9.9328-15.1808c-27.7248-42.9056-86.3232-131.328-86.3232-213.4784 0-158.5408 106.2144-287.2576 236.4928-287.2576 130.304 0 236.5184 128.7168 236.5184 287.2576 0 75.3408-51.8144 153.3184-82.688 199.8848-8.3712 12.032-18.304 27.7248-19.8912 31.9232-6.272 20.4032-5.2224 30.8736-4.1984 33.4848 7.8592 7.3216 28.2624 16.7424 40.8064 21.9648l182.0928 71.168c48.128 17.28 82.1504 62.7968 82.1504 111.4624l0.512 19.8912c1.0496 53.3248-41.856 92.5696-100.992 92.5696zM261.632 689.8944l-165.3504 73.2672c-31.3856 10.9824-54.4256 41.344-54.4256 71.168v19.3536c0 35.584 30.336 51.2768 60.16 51.2768h665.0624c29.824 0 60.1856-15.6928 60.1856-51.2768l-0.512-19.3536c0-30.8736-23.0144-61.2096-54.4256-72.2176h-0.512l-183.1424-71.68c-6.272-2.6112-39.2448-15.6928-54.9376-30.8736-15.1808-14.1312-17.28-39.7824-6.272-75.8784 3.1488-9.4208 10.4704-21.4528 25.1136-42.9056 28.2624-42.3936 75.8784-114.0736 75.8784-176.3328 0-135.5264-87.3728-245.4016-194.6368-245.4016-107.264 0-194.6368 109.8752-194.6368 245.4016 0 69.0688 55.4752 153.8304 79.0016 190.464 5.76 8.9088 9.9328 14.6432 12.032 19.3536 13.5936 26.6752 11.52 66.9696-3.6608 83.2-14.6944 15.6928-51.84 28.2624-64.9216 32.4352z m300.8512-60.672s0.5376 0 0 0c0.5376 0 0 0 0 0z m0 0" p-id="15822" fill="#949494"></path><path d="M747.7248 375.424h241.7408c18.8416 0 33.4848 9.4208 33.4848 29.824s-16.7424 29.824-35.584 29.824h-239.6416c-18.8416 0-34.5344-9.4208-34.5344-29.824s15.1808-29.824 34.5344-29.824z m274.7136 167.4496c0 20.4032-14.1312 29.824-33.4848 29.824h-189.9264c-18.8416 0-34.5344-9.4208-34.5344-29.824s15.1808-29.824 34.5344-29.824h190.976c18.816 0 32.4352 9.4208 32.4352 29.824z m-32.9728 159.5904h-127.1552c-18.8416 0-34.5344-9.4208-34.5344-29.824s15.1808-29.824 34.5344-29.824h128.2048c18.8416 0 33.4848 9.4208 33.4848 29.824s-15.6928 29.824-34.5344 29.824z m0 0" p-id="15823" fill="#949494"></path></svg>