<?xml version="1.0" standalone="no"?><!DOCTYPE svg PUBLIC "-//W3C//DTD SVG 1.1//EN" "http://www.w3.org/Graphics/SVG/1.1/DTD/svg11.dtd"><svg t="1742227527824" class="icon" viewBox="0 0 2254 1024" version="1.1" xmlns="http://www.w3.org/2000/svg" p-id="1145" xmlns:xlink="http://www.w3.org/1999/xlink" width="70.4375" height="32"><path d="M68.17012877 495.38278906l95.90504438-84.03560812c9.49554937-9.49554937 18.04154344-18.04154344 18.0415425-31.33531125L182.11671565 127.90504437c0-52.70029687 43.2047475-95.90504438 95.90504437-95.90504437L2077.42828877 32C2130.12858565 32.47477719 2173.33333314 75.67952562 2173.33333314 128.37982156L2173.33333314 896.09495563C2173.33333315 948.7952525 2130.12858565 992 2077.42828877 992l-1799.88130594 0c-52.70029687 0-95.90504438-43.2047475-95.90504437-95.90504437l0-252.10682532c0-13.29376875-8.54599406-21.36498563-18.04154344-31.33531125l-95.90504437-84.03560812c-9.02077125-8.07121688-9.02077125-23.7388725 0.47477812-33.23442188z" fill="#ffffff" p-id="1146"></path></svg>