<?xml version="1.0" standalone="no"?><!DOCTYPE svg PUBLIC "-//W3C//DTD SVG 1.1//EN" "http://www.w3.org/Graphics/SVG/1.1/DTD/svg11.dtd"><svg t="1742287015089" class="icon" viewBox="0 0 1024 1024" version="1.1" xmlns="http://www.w3.org/2000/svg" p-id="21772" xmlns:xlink="http://www.w3.org/1999/xlink" width="32" height="32"><path d="M112 240c0-23.552 19.072-42.688 42.688-42.688h714.624c23.552 0 42.688 19.136 42.688 42.688v544a42.688 42.688 0 0 1-42.688 42.688H154.688a42.688 42.688 0 0 1-42.688-42.688v-544z" fill="#95ec69" p-id="21773"></path><path d="M86.4 240c0-37.76 30.592-68.288 68.288-68.288h714.624c37.76 0 68.288 30.592 68.288 68.288v544c0 37.76-30.592 68.288-68.288 68.288H154.688c-37.76 0-68.288-30.592-68.288-68.288v-544z m68.288-17.088a17.088 17.088 0 0 0-17.088 17.088v544c0 9.408 7.68 17.088 17.088 17.088h714.624c9.472 0 17.088-7.68 17.088-17.088v-544a17.088 17.088 0 0 0-17.088-17.088H154.688z" fill="#95ec69" p-id="21774"></path></svg>