<?xml version="1.0" standalone="no"?><!DOCTYPE svg PUBLIC "-//W3C//DTD SVG 1.1//EN" "http://www.w3.org/Graphics/SVG/1.1/DTD/svg11.dtd"><svg t="1741875605003" class="icon" viewBox="0 0 1024 1024" version="1.1" xmlns="http://www.w3.org/2000/svg" p-id="44560" xmlns:xlink="http://www.w3.org/1999/xlink" width="32" height="32"><path d="M376.1152 901.74464c-20.77184 21.07904-38.1952 36.3008-63.93344 53.65248-31.22176 21.05344-63.52384 36.49536-87.3216 41.44128-38.6048 8.02304-66.64192-15.45728-47.39072-56.84736 25.24672-43.6224 38.10304-76.07296 40.448-97.6384 1.39776-12.89216-0.57856-17.70496-4.33152-20.0192C80.75776 740.47488 0 608.8192 0 465.1008 0 221.44 230.01088 25.6 512 25.6s512 195.84 512 439.5008c0 243.65568-230.01088 439.49056-512 439.49056-42.73664 0-84.79744-4.49536-125.49632-13.2864-1.6896 1.6128-4.4288 4.39296-10.38848 10.43968z m-91.2384 13.34272c22.1696-14.9504 84.0192-77.7216 104.8832-72.9088 39.49568 9.09824 80.4864 13.76256 122.24 13.76256 256.61952 0 463.23712-175.9232 463.23712-390.84544 0-214.92736-206.6176-390.84544-463.23712-390.84544S48.76288 250.17344 48.76288 465.1008c0 126.0544 71.41376 242.48832 190.44864 315.84768 40.15104 24.74496 37.04832 79.0528-8.37632 163.34336 15.55968-6.016 34.92352-16.3072 54.04672-29.19936z" fill="#949494" p-id="44561"></path></svg>