<?xml version="1.0" standalone="no"?><!DOCTYPE svg PUBLIC "-//W3C//DTD SVG 1.1//EN" "http://www.w3.org/Graphics/SVG/1.1/DTD/svg11.dtd"><svg t="1742092400653" class="icon" viewBox="0 0 1024 1024" version="1.1" xmlns="http://www.w3.org/2000/svg" p-id="2743" xmlns:xlink="http://www.w3.org/1999/xlink" width="32" height="32"><path d="M263.85 448.131v173.506c0 28.574-10.535 56.18-28.576 76.885l-47.1 53.274v42.862h520.64l-404.04-497.875c-25.669 43.346-40.925 95.046-40.925 151.348z m249.542 491.943c42.862 0 76.159-36.93 76.159-84.27H437.234c0 47.34 33.297 84.27 76.158 84.27zM894.427 822.87l-55.696-68.773v-2.422l-20.947-23.61-1.937-2.3-37.292-45.89-0.242-0.605c-9.565-17.314-14.772-37.413-14.772-57.633V448.13c0-131.613-84.27-241.552-194.331-270.611v-27.606c0-30.512-15.256-57.634-41.894-64.05-38.14-9.808-69.014 22.157-69.014 63.566v29.059c-22.4 5.932-43.83 14.771-63.809 27.121-0.121 0-0.121 0.121-0.242 0.121l-81.97-101.1c-11.019-13.561-30.633-15.377-43.71-3.996-13.076 11.381-14.893 31.723-3.874 45.283l80.275 98.922-0.484 0.484 445.206 549.334h0.848l56.422 69.5c11.019 13.56 30.633 15.377 43.71 3.995 13.076-11.381 14.771-31.722 3.753-45.283z" fill="#b4b4b4" p-id="2744"></path></svg>