<?xml version="1.0" standalone="no"?><!DOCTYPE svg PUBLIC "-//W3C//DTD SVG 1.1//EN" "http://www.w3.org/Graphics/SVG/1.1/DTD/svg11.dtd"><svg t="1741967476704" class="icon" viewBox="0 0 1024 1024" version="1.1" xmlns="http://www.w3.org/2000/svg" p-id="64519" xmlns:xlink="http://www.w3.org/1999/xlink" width="32" height="32"><path d="M106.496 410.624c56.0128 0 101.376 45.3632 101.376 101.376s-45.3632 101.376-101.376 101.376-101.376-45.3632-101.376-101.376 45.3632-101.376 101.376-101.376zM512 410.624c56.0128 0 101.376 45.3632 101.376 101.376s-45.3632 101.376-101.376 101.376-101.376-45.3632-101.376-101.376 45.3632-101.376 101.376-101.376zM917.504 410.624c56.0128 0 101.376 45.3632 101.376 101.376s-45.3632 101.376-101.376 101.376-101.376-45.3632-101.376-101.376 45.3632-101.376 101.376-101.376z" fill="#5C5D5D" p-id="64520"></path></svg>