<?xml version="1.0" standalone="no"?><!DOCTYPE svg PUBLIC "-//W3C//DTD SVG 1.1//EN" "http://www.w3.org/Graphics/SVG/1.1/DTD/svg11.dtd"><svg t="1741876328763" class="icon" viewBox="0 0 1024 1024" version="1.1" xmlns="http://www.w3.org/2000/svg" p-id="31359" xmlns:xlink="http://www.w3.org/1999/xlink" width="32" height="32"><path d="M932.7 204.5H90.1c-14.8 0-26.8-12-26.8-26.7 0-14.8 12-26.8 26.8-26.8h842.6c14.8 0 26.8 12 26.8 26.8s-12 26.7-26.8 26.7z m0 0M932.7 538.9H90.1c-14.8 0-26.8-12-26.8-26.8s12-26.8 26.8-26.8h842.6c14.8 0 26.8 12 26.8 26.8 0 14.9-12 26.8-26.8 26.8z m0 0M932.7 873.3H90.1c-14.8 0-26.8-12-26.8-26.8s12-26.8 26.8-26.8h842.6c14.8 0 26.8 12 26.8 26.8s-12 26.8-26.8 26.8z m0 0" p-id="31360" fill="#dbdbdb"></path></svg>