<?xml version="1.0" standalone="no"?><!DOCTYPE svg PUBLIC "-//W3C//DTD SVG 1.1//EN" "http://www.w3.org/Graphics/SVG/1.1/DTD/svg11.dtd"><svg t="1741952248397" class="icon" viewBox="0 0 1024 1024" version="1.1" xmlns="http://www.w3.org/2000/svg" p-id="703" xmlns:xlink="http://www.w3.org/1999/xlink" width="32" height="32"><path d="M836.266667 593.066667c-42.666667-72.533333-85.333333-153.6-98.133334-247.466667l-4.266666-34.133333c0-12.8 0-25.6 8.533333-34.133334 21.333333-25.6 29.866667-55.466667 25.6-85.333333C759.466667 128 708.266667 85.333333 644.266667 85.333333H401.066667C320 85.333333 264.533333 128 256 187.733333c-4.266667 29.866667 4.266667 59.733333 25.6 85.333334 8.533333 12.8 8.533333 25.6 8.533333 38.4v8.533333c-12.8 110.933333-46.933333 196.266667-93.866666 260.266667-21.333333 25.6-29.866667 59.733333-25.6 89.6C183.466667 725.333333 234.666667 768 294.4 768h187.733333v136.533333c0 17.066667 12.8 34.133333 34.133334 34.133334s34.133333-12.8 34.133333-34.133334V768h157.866667c85.333333 0 140.8-34.133333 149.333333-98.133333 0-25.6-4.266667-55.466667-21.333333-76.8z m-46.933334 68.266666c-8.533333 38.4-59.733333 42.666667-89.6 42.666667H294.4c-29.866667 0-55.466667-17.066667-59.733333-42.666667-4.266667-12.8 0-29.866667 8.533333-42.666666 55.466667-72.533333 89.6-170.666667 106.666667-290.133334v-8.533333c4.266667-29.866667-4.266667-64-21.333334-85.333333-4.266667-8.533333-8.533333-25.6-8.533333-38.4 4.266667-29.866667 34.133333-46.933333 81.066667-46.933334h243.2c29.866667 0 55.466667 21.333333 59.733333 46.933334 0 12.8-4.266667 29.866667-12.8 38.4-17.066667 21.333333-25.6 51.2-21.333333 85.333333l4.266666 34.133333c12.8 102.4 59.733333 196.266667 106.666667 268.8 4.266667 8.533333 8.533333 21.333333 8.533333 38.4z" p-id="704" fill="#07c160"></path></svg>